<svg xmlns="http://www.w3.org/2000/svg" viewBox="0 0 750 500"><g id="freepik--Floor--inject-16"><path d="M709.64,464.1c0,.14-149.83.26-334.62.26s-334.66-.12-334.66-.26,149.8-.26,334.66-.26S709.64,464,709.64,464.1Z" style="fill:#263238"></path></g><g id="freepik--Dasboard--inject-16"><rect x="133.92" y="66.98" width="504.96" height="356.24" rx="8.69" style="fill:#fafafa"></rect><path d="M621.9,351.4H532a7.23,7.23,0,0,1-7.22-7.22v-189a7.23,7.23,0,0,1,7.22-7.22H621.9a7.23,7.23,0,0,1,7.22,7.22v189A7.23,7.23,0,0,1,621.9,351.4ZM532,148.92a6.23,6.23,0,0,0-6.22,6.22v189A6.23,6.23,0,0,0,532,350.4H621.9a6.23,6.23,0,0,0,6.22-6.22v-189a6.23,6.23,0,0,0-6.22-6.22Z" style="fill:#e0e0e0"></path><rect x="133.72" y="67.34" width="46.9" height="356.16" rx="9.65" style="fill:#008080"></rect><path d="M178.1,220.87h-36a2.79,2.79,0,0,0-2.79,2.8v28.42a2.79,2.79,0,0,0,2.79,2.8h39a2.8,2.8,0,0,0,2.78-3.09l3.51-31.11Z" style="fill:#fafafa"></path><path d="M575.73,100.58l.25-.15a2,2,0,0,0,.58-.53,4.8,4.8,0,0,0,.8-2.79,9,9,0,0,1,.38-2.1,2.82,2.82,0,0,1,4.42-1.53,4.16,4.16,0,0,1,1.31,2.67,11.77,11.77,0,0,1,.12,1.32,3,3,0,0,0,.14,1.15,4.38,4.38,0,0,0,1.35,1.76l.54.44h-.69c-2.76,0-5.15-.12-6.75-.17l-2.45-.07,2.72-.07c1.66-.06,3.87-.17,6.48-.18l-.14.44a4.84,4.84,0,0,1-1.54-2,3.4,3.4,0,0,1-.18-1.32,10.37,10.37,0,0,0-.11-1.25,3.78,3.78,0,0,0-1.11-2.35,2.49,2.49,0,0,0-2.28-.31,2.45,2.45,0,0,0-1.42,1.58,9.58,9.58,0,0,0-.43,2,7.2,7.2,0,0,1-.33,1.72,3.51,3.51,0,0,1-.67,1.16,1.81,1.81,0,0,1-.69.49.4.4,0,0,1-.2,0Z" style="fill:#263238"></path><circle cx="582.96" cy="94.45" r="1.97" style="fill:#008080"></circle><path d="M579.1,101.83h2.71a1.33,1.33,0,0,1-1.48,1.38A1.12,1.12,0,0,1,579.1,101.83Z" style="fill:#263238;fill-rule:evenodd"></path><rect x="595.79" y="87.81" width="20.92" height="20.92" rx="4.51" style="fill:#008080"></rect><path d="M373,269.54c-9,0-13-7.06-16.84-13.89-3.2-5.63-6.5-11.45-11.91-11.45-6,0-9,2.27-12.44,4.9-3.74,2.87-8,6.12-16.3,6.12-9.13,0-12.91-8.56-16.92-17.62-3.08-7-6.58-14.88-11.82-14.88s-8.74,7.9-11.82,14.87c-4,9.07-7.8,17.63-16.92,17.63-8.6,0-12.83-4.56-16.58-8.57-3.42-3.68-6.39-6.86-12.17-6.86v-.85c6.15,0,9.23,3.3,12.8,7.13s7.73,8.29,15.95,8.29c8.57,0,12.24-8.31,16.14-17.11,3.18-7.21,6.8-15.38,12.6-15.38s9.41,8.17,12.6,15.38c3.89,8.8,7.57,17.11,16.14,17.11,8,0,12.14-3.15,15.77-5.93s6.63-5.08,13-5.08c5.91,0,9.33,6,12.65,11.88,3.75,6.62,7.63,13.45,16.1,13.45s12.32-6.4,16.08-12.6c3.46-5.7,6.72-11.08,12.66-11.08,6.13,0,9.21,3.42,12.78,7.38s7.73,8.59,16,8.59c8.59,0,12.26-8.85,16.15-18.23,3.2-7.72,6.82-16.47,12.6-16.47s9.3,6.72,12.62,13.22c3.75,7.32,7.61,14.87,16.13,14.87,8.22,0,12.33-4.4,16-8.29s6.65-7.13,12.8-7.13v.85c-5.78,0-8.74,3.18-12.17,6.86-3.75,4-8,8.57-16.58,8.57-9,0-13-7.8-16.88-15.34-3.22-6.27-6.53-12.76-11.87-12.76s-8.72,8.47-11.81,15.94c-4,9.65-7.78,18.76-16.94,18.76-8.62,0-12.86-4.71-16.6-8.86-3.44-3.82-6.4-7.11-12.15-7.11-5.46,0-8.6,5.18-11.93,10.67C386,262.92,381.94,269.54,373,269.54Z" style="fill:#008080"></path><path d="M230.4,281.36l.22-.26a.92.92,0,0,0,.78.44c.44,0,.66-.26.66-.79v-2.16h-1.31v-.33h1.68v2.48c0,.76-.35,1.13-1,1.13A1.2,1.2,0,0,1,230.4,281.36Z" style="fill:#e0e0e0"></path><path d="M235.52,280.17v1.67h-.34v-.42a1,1,0,0,1-.93.44c-.61,0-1-.31-1-.78s.26-.76,1-.76h.85v-.16c0-.46-.26-.71-.76-.71a1.4,1.4,0,0,0-.9.31l-.16-.27a1.7,1.7,0,0,1,1.09-.36A1,1,0,0,1,235.52,280.17Zm-.36.86v-.44h-.84c-.52,0-.69.21-.69.48s.25.51.68.51A.86.86,0,0,0,235.16,281Z" style="fill:#e0e0e0"></path><path d="M239,280.28v1.56h-.37v-1.53a.74.74,0,0,0-.8-.85.88.88,0,0,0-.94,1v1.41h-.37v-2.69h.35v.49a1.14,1.14,0,0,1,1-.51A1,1,0,0,1,239,280.28Z" style="fill:#e0e0e0"></path><path d="M269.45,278.59V280h1.86v.33h-1.86v1.52h-.37v-3.58h2.45v.33Z" style="fill:#e0e0e0"></path><path d="M274.49,280.61h-2.25a1,1,0,0,0,1.06.93,1.09,1.09,0,0,0,.82-.35l.2.23a1.3,1.3,0,0,1-1,.44,1.33,1.33,0,0,1-1.41-1.37,1.29,1.29,0,0,1,1.31-1.36,1.28,1.28,0,0,1,1.3,1.36Zm-2.25-.27h1.91a1,1,0,0,0-1.91,0Z" style="fill:#e0e0e0"></path><path d="M278,280.49a1.3,1.3,0,0,1-1.34,1.37,1.17,1.17,0,0,1-1-.55v.53h-.34v-3.79h.36v1.61a1.16,1.16,0,0,1,1-.53A1.3,1.3,0,0,1,278,280.49Zm-.36,0a1,1,0,1,0-1,1.05A1,1,0,0,0,277.6,280.49Z" style="fill:#e0e0e0"></path><path d="M312.7,278.26v3.58h-.37V279l-1.4,2.4h-.18L309.34,279v2.85H309v-3.58h.31l1.56,2.65,1.54-2.65Z" style="fill:#e0e0e0"></path><path d="M315.82,280.17v1.67h-.35v-.42a1,1,0,0,1-.92.44c-.61,0-1-.31-1-.78s.26-.76,1-.76h.86v-.16c0-.46-.26-.71-.76-.71a1.4,1.4,0,0,0-.9.31l-.16-.27a1.7,1.7,0,0,1,1.09-.36A1,1,0,0,1,315.82,280.17Zm-.36.86v-.44h-.85c-.52,0-.69.21-.69.48s.25.51.68.51A.88.88,0,0,0,315.46,281Z" style="fill:#e0e0e0"></path><path d="M318.16,279.13v.35h-.08a.87.87,0,0,0-.91,1v1.37h-.36v-2.69h.35v.53A1,1,0,0,1,318.16,279.13Z" style="fill:#e0e0e0"></path><path d="M349.3,280.88h-2l-.43,1h-.39l1.64-3.58h.37l1.64,3.58h-.4Zm-.14-.3-.86-1.93-.86,1.93Z" style="fill:#e0e0e0"></path><path d="M353.37,280.49a1.3,1.3,0,0,1-1.34,1.37,1.16,1.16,0,0,1-1-.53v1.5h-.37v-3.68H351v.53a1.16,1.16,0,0,1,1-.55A1.3,1.3,0,0,1,353.37,280.49Zm-.36,0a1,1,0,1,0-1,1.05A1,1,0,0,0,353,280.49Z" style="fill:#e0e0e0"></path><path d="M355.47,279.13v.35h-.09c-.56,0-.9.35-.9,1v1.37h-.37v-2.69h.35v.53A1,1,0,0,1,355.47,279.13Z" style="fill:#e0e0e0"></path><path d="M392.51,278.26v3.58h-.36V279l-1.41,2.4h-.18L389.15,279v2.85h-.36v-3.58h.31l1.56,2.65,1.54-2.65Z" style="fill:#e0e0e0"></path><path d="M395.63,280.17v1.67h-.35v-.42a1,1,0,0,1-.92.44c-.61,0-1-.31-1-.78s.26-.76,1-.76h.86v-.16c0-.46-.26-.71-.76-.71a1.4,1.4,0,0,0-.9.31l-.16-.27a1.7,1.7,0,0,1,1.09-.36A1,1,0,0,1,395.63,280.17Zm-.36.86v-.44h-.85c-.52,0-.69.21-.69.48s.25.51.68.51A.88.88,0,0,0,395.27,281Z" style="fill:#e0e0e0"></path><path d="M398.83,279.15l-1.35,3c-.22.53-.51.7-.89.7a.92.92,0,0,1-.65-.25l.16-.27a.7.7,0,0,0,.49.2c.24,0,.41-.11.56-.45l.12-.26-1.2-2.68h.38l1,2.28,1-2.28Z" style="fill:#e0e0e0"></path><path d="M426.26,281.36l.22-.26a.9.9,0,0,0,.77.44c.44,0,.67-.26.67-.79v-2.16h-1.31v-.33h1.68v2.48c0,.76-.36,1.13-1,1.13A1.18,1.18,0,0,1,426.26,281.36Z" style="fill:#e0e0e0"></path><path d="M431.77,279.15v2.69h-.34v-.49a1.09,1.09,0,0,1-1,.51,1,1,0,0,1-1.14-1.15v-1.56h.37v1.52c0,.58.29.87.81.87a.88.88,0,0,0,.91-1v-1.41Z" style="fill:#e0e0e0"></path><path d="M435.27,280.28v1.56h-.37v-1.53a.74.74,0,0,0-.8-.85.88.88,0,0,0-.94,1v1.41h-.37v-2.69h.35v.49a1.15,1.15,0,0,1,1-.51A1,1,0,0,1,435.27,280.28Z" style="fill:#e0e0e0"></path><path d="M466.16,281.36l.23-.26a.89.89,0,0,0,.77.44c.44,0,.66-.26.66-.79v-2.16h-1.31v-.33h1.68v2.48c0,.76-.35,1.13-1,1.13A1.2,1.2,0,0,1,466.16,281.36Z" style="fill:#e0e0e0"></path><path d="M471.68,279.15v2.69h-.35v-.49a1.09,1.09,0,0,1-1,.51,1,1,0,0,1-1.13-1.15v-1.56h.36v1.52c0,.58.3.87.81.87a.88.88,0,0,0,.92-1v-1.41Z" style="fill:#e0e0e0"></path><path d="M472.7,278.05h.36v3.79h-.36Z" style="fill:#e0e0e0"></path><path d="M507.08,280.88h-2l-.43,1h-.39l1.63-3.58h.38l1.63,3.58h-.4Zm-.13-.3-.86-1.93-.86,1.93Z" style="fill:#e0e0e0"></path><path d="M510.8,279.15v2.69h-.34v-.49a1.09,1.09,0,0,1-1,.51,1,1,0,0,1-1.13-1.15v-1.56h.36v1.52c0,.58.29.87.81.87a.88.88,0,0,0,.91-1v-1.41Z" style="fill:#e0e0e0"></path><path d="M514.31,279.15v2.36a1.18,1.18,0,0,1-1.34,1.35,1.85,1.85,0,0,1-1.25-.42l.18-.27a1.6,1.6,0,0,0,1.06.36c.68,0,1-.31,1-1v-.35a1.2,1.2,0,0,1-1.05.53,1.31,1.31,0,1,1,0-2.61,1.22,1.22,0,0,1,1.07.54v-.52Zm-.35,1.28a1,1,0,1,0-1,1A1,1,0,0,0,514,280.43Z" style="fill:#e0e0e0"></path><path d="M211.66,279.69c0-.78.41-1.25,1-1.25s1,.47,1,1.25-.41,1.25-1,1.25S211.66,280.48,211.66,279.69Zm1.7,0c0-.65-.29-1-.72-1s-.73.36-.73,1,.3,1,.73,1S213.36,280.35,213.36,279.69Z" style="fill:#e0e0e0"></path><path d="M209.43,266.84v2.46h-.25v-2.24h-.58v-.22Z" style="fill:#e0e0e0"></path><path d="M210,268.07c0-.78.41-1.25,1-1.25s1,.47,1,1.25-.41,1.25-1,1.25S210,268.85,210,268.07Zm1.7,0c0-.66-.29-1-.72-1s-.73.36-.73,1,.3,1,.73,1S211.72,268.72,211.72,268.07Z" style="fill:#e0e0e0"></path><path d="M210.43,259.46v.22h-1.72v-.18l1-1c.27-.27.33-.44.33-.6s-.2-.46-.58-.46a.81.81,0,0,0-.67.27l-.18-.15a1.09,1.09,0,0,1,.87-.35c.5,0,.82.25.82.66a1,1,0,0,1-.41.77l-.83.82Z" style="fill:#e0e0e0"></path><path d="M210.73,258.45c0-.78.41-1.24,1-1.24s1,.46,1,1.24-.41,1.25-1,1.25S210.73,259.24,210.73,258.45Zm1.7,0c0-.65-.29-1-.72-1s-.72.36-.72,1,.29,1,.72,1S212.43,259.11,212.43,258.45Z" style="fill:#e0e0e0"></path><path d="M210.38,249c0,.41-.3.73-.9.73a1.29,1.29,0,0,1-.88-.32l.12-.2a1.07,1.07,0,0,0,.76.29c.41,0,.64-.19.64-.5s-.21-.49-.67-.49h-.17v-.18l.68-.86H208.7v-.22h1.58v.18l-.69.87C210.11,248.36,210.38,248.64,210.38,249Z" style="fill:#e0e0e0"></path><path d="M210.73,248.51c0-.78.41-1.25,1-1.25s1,.47,1,1.25-.41,1.25-1,1.25S210.73,249.29,210.73,248.51Zm1.7,0c0-.66-.29-1-.72-1s-.72.36-.72,1,.29,1,.72,1S212.43,249.16,212.43,248.51Z" style="fill:#e0e0e0"></path><path d="M210.84,239.48h-.49v.64h-.25v-.64h-1.39v-.18l1.3-1.63h.28L209,239.25h1.06v-.56h.25v.56h.49Z" style="fill:#e0e0e0"></path><path d="M211.07,238.9c0-.79.41-1.25,1-1.25s1,.46,1,1.25-.41,1.25-1,1.25S211.07,239.68,211.07,238.9Zm1.7,0c0-.66-.29-1-.72-1s-.72.36-.72,1,.29,1,.72,1S212.77,239.55,212.77,238.9Z" style="fill:#e0e0e0"></path><path d="M210.42,230.18c0,.42-.29.74-.89.74a1.27,1.27,0,0,1-.88-.31l.12-.2a1.09,1.09,0,0,0,.75.28c.42,0,.64-.2.64-.5s-.19-.51-.82-.51h-.52l.12-1.24h1.35v.23h-1.12l-.09.78h.32C210.14,229.45,210.42,229.74,210.42,230.18Z" style="fill:#e0e0e0"></path><path d="M210.74,229.67c0-.78.41-1.25,1-1.25s1,.47,1,1.25-.42,1.25-1,1.25S210.74,230.46,210.74,229.67Zm1.7,0c0-.65-.3-1-.72-1s-.73.36-.73,1,.3,1,.73,1S212.44,230.33,212.44,229.67Z" style="fill:#e0e0e0"></path><path d="M210.6,220.56a.76.76,0,0,1-.84.75c-.65,0-1-.45-1-1.23s.46-1.27,1.12-1.27a1.2,1.2,0,0,1,.59.13l-.1.21a.84.84,0,0,0-.48-.12c-.53,0-.87.34-.87,1a1.41,1.41,0,0,0,0,.2.78.78,0,0,1,.75-.42A.75.75,0,0,1,210.6,220.56Zm-.25,0c0-.32-.24-.53-.62-.53a.57.57,0,0,0-.63.54c0,.27.22.53.65.53A.54.54,0,0,0,210.35,220.56Z" style="fill:#e0e0e0"></path><path d="M210.89,220.06c0-.78.41-1.25,1-1.25s1,.47,1,1.25-.41,1.25-1,1.25S210.89,220.84,210.89,220.06Zm1.7,0c0-.66-.29-1-.72-1s-.73.36-.73,1,.3,1,.73,1S212.59,220.72,212.59,220.06Z" style="fill:#e0e0e0"></path><g style="opacity:0.62"><rect x="223.47" y="220.66" width="294.25" height="0.25" style="fill:#e0e0e0"></rect><rect x="223.47" y="230.25" width="294.25" height="0.25" style="fill:#e0e0e0"></rect><rect x="223.47" y="239.84" width="294.25" height="0.25" style="fill:#e0e0e0"></rect><rect x="223.47" y="249.43" width="294.25" height="0.25" style="fill:#e0e0e0"></rect><rect x="223.47" y="259.02" width="294.25" height="0.25" style="fill:#e0e0e0"></rect><rect x="223.47" y="268.62" width="294.25" height="0.25" style="fill:#e0e0e0"></rect></g><path d="M289.63,222.72a2.93,2.93,0,1,0-2.93,2.92A2.93,2.93,0,0,0,289.63,222.72Z" style="fill:#008080"></path><path d="M375.68,268.83a2.92,2.92,0,1,0-2.92,2.93A2.92,2.92,0,0,0,375.68,268.83Z" style="fill:#455a64"></path><path d="M164.14,143.46a.38.38,0,0,1-.25-.09l-6.72-6.09-6.73,6.09a.39.39,0,0,1-.53,0,.37.37,0,0,1,0-.53l7-6.31a.38.38,0,0,1,.51,0l7,6.31a.37.37,0,0,1,0,.53A.38.38,0,0,1,164.14,143.46Z" style="fill:#fafafa"></path><path d="M162.23,148.79H152.1a.37.37,0,0,1-.37-.37v-7a.37.37,0,0,1,.37-.38.38.38,0,0,1,.38.38V148h9.38v-6.67a.37.37,0,0,1,.37-.38.38.38,0,0,1,.38.38v7A.38.38,0,0,1,162.23,148.79Z" style="fill:#fafafa"></path><path d="M163.46,192.46h-13.2a.38.38,0,0,1-.38-.37v-8.43a1.89,1.89,0,0,1,1.89-1.89h3.44a2.13,2.13,0,0,1,2,1.31l.59,1.41h4.17a1.89,1.89,0,0,1,1.89,1.89v5.71A.37.37,0,0,1,163.46,192.46Zm-12.83-.75h12.45v-5.33a1.14,1.14,0,0,0-1.14-1.14h-4.42a.38.38,0,0,1-.35-.23l-.69-1.64a1.36,1.36,0,0,0-1.27-.85h-3.44a1.14,1.14,0,0,0-1.14,1.14Z" style="fill:#fafafa"></path><path d="M153.12,347.12a1,1,0,0,1-.58-.19,1,1,0,0,1-.4-1l.55-3.51a.23.23,0,0,0-.07-.21l-2.51-2.52a1,1,0,0,1,.55-1.69l3.51-.56a.23.23,0,0,0,.18-.13l1.62-3.17a1,1,0,0,1,1.78,0l1.61,3.17a.26.26,0,0,0,.18.13l3.51.56a1,1,0,0,1,.55,1.69l-2.51,2.52a.26.26,0,0,0-.07.21l.56,3.51a1,1,0,0,1-.4,1,1,1,0,0,1-1,.08l-3.17-1.6a.24.24,0,0,0-.23,0l-3.16,1.6A1,1,0,0,1,153.12,347.12Zm3.74-2.49a1,1,0,0,1,.45.11l3.17,1.61a.25.25,0,0,0,.36-.26l-.56-3.51a1,1,0,0,1,.28-.86l2.51-2.52a.25.25,0,0,0-.13-.42l-3.51-.56a1,1,0,0,1-.74-.53l-1.61-3.17h0a.24.24,0,0,0-.22-.13.23.23,0,0,0-.22.13L155,337.69a1,1,0,0,1-.73.53l-3.51.56a.23.23,0,0,0-.2.17.24.24,0,0,0,.06.25l2.51,2.52a1,1,0,0,1,.28.86l-.55,3.51a.25.25,0,0,0,.1.24.26.26,0,0,0,.26,0l3.16-1.61A1.07,1.07,0,0,1,156.86,344.63Z" style="fill:#fafafa"></path><path d="M164.27,294.42H149.44a.38.38,0,0,1-.37-.38v-9.35a.37.37,0,0,1,.37-.37h14.83a.37.37,0,0,1,.38.37V294A.38.38,0,0,1,164.27,294.42Zm-14.45-.75H163.9v-8.6H149.82Z" style="fill:#fafafa"></path><path d="M157,291.79a.35.35,0,0,1-.25-.1l-7.6-6.72a.38.38,0,1,1,.5-.56l7.34,6.5,7-6.49a.37.37,0,0,1,.53,0,.38.38,0,0,1,0,.53l-7.24,6.72A.39.39,0,0,1,157,291.79Z" style="fill:#fafafa"></path><path d="M149.66,294a.39.39,0,0,1-.27-.11.37.37,0,0,1,0-.53l4.51-4.51a.37.37,0,1,1,.53.53l-4.51,4.51A.38.38,0,0,1,149.66,294Z" style="fill:#fafafa"></path><path d="M164.37,294.32a.4.4,0,0,1-.27-.11l-4.82-4.82a.37.37,0,0,1,.53-.53l4.82,4.82a.37.37,0,0,1,0,.53A.38.38,0,0,1,164.37,294.32Z" style="fill:#fafafa"></path><rect x="156.07" y="234.43" width="2.19" height="2.19" style="fill:#008080"></rect><rect x="160.2" y="234.43" width="2.19" height="2.19" style="fill:#008080"></rect><rect x="151.94" y="234.43" width="2.19" height="2.19" style="fill:#008080"></rect><rect x="160.2" y="237.88" width="2.19" height="2.19" style="fill:#008080"></rect><rect x="156.07" y="237.88" width="2.19" height="2.19" style="fill:#008080"></rect><rect x="151.94" y="237.88" width="2.19" height="2.19" style="fill:#008080"></rect><path d="M164.94,243.81H149.39a.37.37,0,0,1-.38-.37V230.65a.38.38,0,0,1,.38-.37h15.55a.38.38,0,0,1,.38.37v12.79A.37.37,0,0,1,164.94,243.81Zm-15.18-.75h14.81V231H149.76Z" style="fill:#008080"></path><path d="M153.59,232.57a.38.38,0,0,1-.37-.38v-4.12a.38.38,0,1,1,.75,0v4.12A.38.38,0,0,1,153.59,232.57Z" style="fill:#008080"></path><path d="M160.35,232.57a.38.38,0,0,1-.37-.38v-4.12a.38.38,0,1,1,.75,0v4.12A.38.38,0,0,1,160.35,232.57Z" style="fill:#008080"></path><rect x="267.27" y="368.26" width="4.98" height="16.7" style="fill:#008080"></rect><rect x="225.63" y="365.84" width="4.98" height="19.12" style="fill:#008080"></rect><rect x="236.04" y="361.85" width="4.98" height="23.1" style="fill:#008080"></rect><rect x="246.45" y="363.12" width="4.98" height="21.83" style="fill:#008080"></rect><rect x="256.86" y="355.74" width="4.98" height="29.22" style="fill:#008080"></rect><rect x="277.68" y="355.88" width="4.98" height="29.08" style="fill:#008080"></rect><rect x="288.09" y="365.43" width="4.98" height="19.53" style="fill:#008080"></rect><rect x="298.49" y="357.16" width="4.98" height="27.8" style="fill:#008080"></rect><rect x="308.9" y="350.9" width="4.98" height="34.06" style="fill:#008080"></rect><rect x="319.31" y="357.02" width="4.98" height="27.94" style="fill:#008080"></rect><path d="M334.72,405.66H212.1A10.13,10.13,0,0,1,202,395.54V322.23a10.13,10.13,0,0,1,10.12-10.12H334.72a10.13,10.13,0,0,1,10.12,10.12v73.31A10.13,10.13,0,0,1,334.72,405.66ZM212.1,313.11a9.13,9.13,0,0,0-9.12,9.12v73.31a9.13,9.13,0,0,0,9.12,9.12H334.72a9.13,9.13,0,0,0,9.12-9.12V322.23a9.13,9.13,0,0,0-9.12-9.12Z" style="fill:#e0e0e0"></path><path d="M281.9,336.48c0,.15-14.18.26-31.67.26s-31.68-.11-31.68-.26,14.18-.26,31.68-.26S281.9,336.34,281.9,336.48Z" style="fill:#e0e0e0"></path><path d="M393.77,350.79a16.67,16.67,0,0,0-3.5,2.68,17,17,0,0,0-2.69,3.5,16.81,16.81,0,0,0-1.69,4.08,17.11,17.11,0,0,0,0,8.76,16.81,16.81,0,0,0,1.69,4.08,17,17,0,0,0,2.69,3.5,16.72,16.72,0,0,0,3.5,2.69,17.32,17.32,0,0,0,4.07,1.69,16.87,16.87,0,0,0,8.77,0,17,17,0,0,0,4.07-1.69,16.34,16.34,0,0,0,3.46-2.66l0,0a16.64,16.64,0,0,0,2.69-3.5,16.84,16.84,0,0,0,1.7-4.08,16.83,16.83,0,0,0,0-8.76,16.84,16.84,0,0,0-1.7-4.08,16.64,16.64,0,0,0-2.69-3.5,16.42,16.42,0,0,0-3.5-2.68,16.83,16.83,0,0,0-12.84-1.7A16.93,16.93,0,0,0,393.77,350.79Z" style="fill:none"></path><path d="M410.68,380.08a17,17,0,0,1-4.07,1.69,16.87,16.87,0,0,1-8.77,0,17.32,17.32,0,0,1-4.07-1.69,16.72,16.72,0,0,1-3.5-2.69,17,17,0,0,1-2.69-3.5,16.81,16.81,0,0,1-1.69-4.08,17.11,17.11,0,0,1,0-8.76,16.81,16.81,0,0,1,1.69-4.08,17,17,0,0,1,2.69-3.5,16.67,16.67,0,0,1,3.5-2.68,16.93,16.93,0,0,1,4.07-1.7,16.73,16.73,0,0,1,4.39-.58v-3.33a20.26,20.26,0,0,0-14.33,5.93,20.26,20.26,0,0,0-3.21,4.19,20,20,0,0,0-2,4.88,20.57,20.57,0,0,0,0,10.49,20,20,0,0,0,2,4.89A20.42,20.42,0,0,0,397,385a20.53,20.53,0,0,0,10.48,0,20,20,0,0,0,4.88-2,19.78,19.78,0,0,0,4.16-3.18l-2.37-2.36A16.34,16.34,0,0,1,410.68,380.08Z" style="fill:#008080"></path><path d="M421.79,360.18a20.32,20.32,0,0,0-14.32-14.32,20.62,20.62,0,0,0-5.24-.68v3.33a16.77,16.77,0,0,1,8.45,2.28,16.42,16.42,0,0,1,3.5,2.68,16.64,16.64,0,0,1,2.69,3.5,16.84,16.84,0,0,1,1.7,4.08,16.83,16.83,0,0,1,0,8.76,16.84,16.84,0,0,1-1.7,4.08,16.64,16.64,0,0,1-2.69,3.5l0,0,2.37,2.36,0,0a20.26,20.26,0,0,0,5.93-14.32A20.65,20.65,0,0,0,421.79,360.18Z" style="fill:#e0e0e0"></path><path d="M399,367.58a1.82,1.82,0,0,1-2,1.79c-1.56,0-2.4-1.07-2.4-2.92s1.09-3,2.67-3a2.65,2.65,0,0,1,1.39.32l-.25.48a2,2,0,0,0-1.13-.28c-1.26,0-2.07.81-2.07,2.4a4.55,4.55,0,0,0,0,.48,1.85,1.85,0,0,1,1.78-1A1.77,1.77,0,0,1,399,367.58Zm-.59,0c0-.76-.57-1.26-1.47-1.26a1.35,1.35,0,0,0-1.5,1.28c0,.64.53,1.25,1.54,1.25A1.28,1.28,0,0,0,398.39,367.59Z" style="fill:#263238"></path><path d="M403.64,367.6c0,1-.69,1.77-2.12,1.77a3,3,0,0,1-2.09-.75l.29-.48a2.48,2.48,0,0,0,1.79.68c1,0,1.52-.48,1.52-1.19s-.46-1.22-1.95-1.22h-1.24l.3-2.93h3.19V364h-2.67l-.2,1.86h.75C403,365.87,403.64,366.57,403.64,367.6Z" style="fill:#263238"></path><path d="M404.24,365c0-.95.53-1.58,1.31-1.58s1.32.62,1.32,1.58-.54,1.59-1.32,1.59S404.24,366,404.24,365Zm2.22,0c0-.76-.36-1.21-.91-1.21s-.9.46-.9,1.21.35,1.21.9,1.21S406.46,365.78,406.46,365Zm2.63-1.54h.5l-4,5.84h-.5Zm-1.27,4.3c0-.95.54-1.59,1.32-1.59s1.31.64,1.31,1.59-.53,1.58-1.31,1.58S407.82,368.73,407.82,367.78Zm2.22,0c0-.75-.35-1.21-.9-1.21s-.91.45-.91,1.21.36,1.21.91,1.21S410,368.53,410,367.78Z" style="fill:#263238"></path><path d="M480.8,365.44a20.49,20.49,0,0,1-.68,5.23A20.24,20.24,0,0,1,470.68,383a19.9,19.9,0,0,1-4.89,2,20.53,20.53,0,0,1-10.48,0,19.83,19.83,0,0,1-4.88-2,20,20,0,0,1-7.41-7.41,19.8,19.8,0,0,1-2-4.88,21.13,21.13,0,0,1-.64-3.83h3.35a18.25,18.25,0,0,0,.51,3,16.64,16.64,0,0,0,1.69,4.07,16.82,16.82,0,0,0,2.7,3.51,17.34,17.34,0,0,0,3.5,2.69,17,17,0,0,0,4.07,1.69,17.11,17.11,0,0,0,8.76,0,16.88,16.88,0,0,0,4.08-1.69,17.34,17.34,0,0,0,3.5-2.69,16.78,16.78,0,0,0,2.69-3.51,16.26,16.26,0,0,0,1.69-4.07,16.83,16.83,0,0,0,0-8.76A16.26,16.26,0,0,0,475.2,357a16.78,16.78,0,0,0-2.69-3.51,16.86,16.86,0,0,0-7.58-4.38,16.65,16.65,0,0,0-4.38-.57v-3.34a20.45,20.45,0,0,1,5.24.68,19.9,19.9,0,0,1,4.89,2,20.32,20.32,0,0,1,9.44,12.29A20.53,20.53,0,0,1,480.8,365.44Z" style="fill:#e0e0e0"></path><path d="M456,363.15v.42L453.54,369h-.65l2.4-5.31h-3v1.09h-.59v-1.62Z" style="fill:#263238"></path><path d="M460.58,367.27c0,1-.69,1.77-2.12,1.77a3,3,0,0,1-2.09-.75l.29-.48a2.51,2.51,0,0,0,1.8.68c1,0,1.51-.49,1.51-1.19s-.46-1.22-2-1.22h-1.24l.3-2.93h3.2v.53H457.6l-.2,1.86h.75C459.92,365.54,460.58,366.24,460.58,367.27Z" style="fill:#263238"></path><path d="M461.18,364.69c0-.95.53-1.59,1.32-1.59s1.32.63,1.32,1.59-.55,1.59-1.32,1.59S461.18,365.64,461.18,364.69Zm2.22,0c0-.76-.36-1.21-.9-1.21s-.9.46-.9,1.21.35,1.21.9,1.21S463.4,365.45,463.4,364.69Zm2.64-1.54h.49l-4,5.84h-.49Zm-1.28,4.3c0-1,.54-1.59,1.32-1.59s1.32.63,1.32,1.59-.54,1.58-1.32,1.58S464.76,368.4,464.76,367.45Zm2.22,0c0-.76-.35-1.21-.9-1.21s-.9.45-.9,1.21.36,1.21.9,1.21S467,368.2,467,367.45Z" style="fill:#263238"></path><path d="M477.47,365.44a16.63,16.63,0,0,1-.58,4.37,16.26,16.26,0,0,1-1.69,4.07,16.78,16.78,0,0,1-2.69,3.51,17.34,17.34,0,0,1-3.5,2.69,16.88,16.88,0,0,1-4.08,1.69,17.11,17.11,0,0,1-8.76,0,17,17,0,0,1-4.07-1.69,17.34,17.34,0,0,1-3.5-2.69,16.82,16.82,0,0,1-2.7-3.51,16.64,16.64,0,0,1-1.69-4.07,18.25,18.25,0,0,1-.51-3h0c0-.47-.06-.93-.06-1.41a17.13,17.13,0,0,1,.57-4.38,17.11,17.11,0,0,1,4.38-7.58,16.93,16.93,0,0,1,12-5v-3.33a20.26,20.26,0,0,0-14.32,5.93,20.13,20.13,0,0,0-5.24,9.08,20.13,20.13,0,0,0-.69,5.24c0,.47,0,.94.05,1.41h0a21.13,21.13,0,0,0,.64,3.83,19.8,19.8,0,0,0,2,4.88,20,20,0,0,0,7.41,7.41,19.83,19.83,0,0,0,4.88,2,20.53,20.53,0,0,0,10.48,0,19.9,19.9,0,0,0,4.89-2,20.32,20.32,0,0,0,9.44-12.29,20.49,20.49,0,0,0,.68-5.23Z" style="fill:#008080"></path><path d="M496.75,404.38H366a8.8,8.8,0,0,1-8.79-8.8V322.19A8.8,8.8,0,0,1,366,313.4H496.75a8.8,8.8,0,0,1,8.8,8.79v73.39A8.81,8.81,0,0,1,496.75,404.38ZM366,314.4a7.8,7.8,0,0,0-7.79,7.79v73.39a7.81,7.81,0,0,0,7.79,7.8H496.75a7.81,7.81,0,0,0,7.8-7.8V322.19a7.8,7.8,0,0,0-7.8-7.79Z" style="fill:#e0e0e0"></path><path d="M432.76,334c0,.15-13.67.26-30.53.26s-30.53-.11-30.53-.26,13.67-.26,30.53-.26S432.76,333.87,432.76,334Z" style="fill:#e0e0e0"></path><path d="M540.79,233.88h0a2.09,2.09,0,0,1-2.09-2.08V192.74a2.09,2.09,0,0,1,2.09-2.08h0a2.08,2.08,0,0,1,2.08,2.08V231.8A2.08,2.08,0,0,1,540.79,233.88Z" style="fill:#e0e0e0"></path><path d="M540.79,234.07h0A2.09,2.09,0,0,1,538.7,232V206.81a2.1,2.1,0,0,1,2.09-2.09h0a2.09,2.09,0,0,1,2.08,2.09V232A2.08,2.08,0,0,1,540.79,234.07Z" style="fill:#008080"></path><path d="M539.48,235.7v3.47h-.36V236h-.82v-.32Z" style="fill:#263238"></path><path d="M540.3,237.43c0-1.1.58-1.76,1.39-1.76s1.39.66,1.39,1.76-.59,1.77-1.39,1.77S540.3,238.54,540.3,237.43Zm2.41,0c0-.92-.42-1.43-1-1.43s-1,.51-1,1.43.41,1.44,1,1.44S542.71,238.36,542.71,237.43Z" style="fill:#263238"></path><path d="M549.11,233.88h0A2.08,2.08,0,0,1,547,231.8V192.74a2.08,2.08,0,0,1,2.08-2.08h0a2.08,2.08,0,0,1,2.08,2.08V231.8A2.08,2.08,0,0,1,549.11,233.88Z" style="fill:#e0e0e0"></path><path d="M549.11,234.07h0A2.08,2.08,0,0,1,547,232V198.88a2.09,2.09,0,0,1,2.08-2.09h0a2.09,2.09,0,0,1,2.08,2.09V232A2.08,2.08,0,0,1,549.11,234.07Z" style="fill:#008080"></path><path d="M548.61,238.85v.32h-2.43v-.25l1.44-1.42c.39-.38.47-.62.47-.85,0-.41-.29-.65-.82-.65a1.17,1.17,0,0,0-.94.38l-.26-.22a1.59,1.59,0,0,1,1.23-.49c.71,0,1.15.36,1.15.94a1.4,1.4,0,0,1-.57,1.08l-1.18,1.16Z" style="fill:#263238"></path><path d="M549,237.43c0-1.1.58-1.76,1.38-1.76s1.39.66,1.39,1.76-.59,1.77-1.39,1.77S549,238.54,549,237.43Zm2.4,0c0-.92-.41-1.43-1-1.43s-1,.51-1,1.43.42,1.44,1,1.44S551.44,238.36,551.44,237.43Z" style="fill:#263238"></path><path d="M557.43,233.88h0a2.08,2.08,0,0,1-2.08-2.08V192.74a2.08,2.08,0,0,1,2.08-2.08h0a2.08,2.08,0,0,1,2.08,2.08V231.8A2.08,2.08,0,0,1,557.43,233.88Z" style="fill:#e0e0e0"></path><path d="M557.43,234.07h0a2.08,2.08,0,0,1-2.08-2.08V212.75a2.08,2.08,0,0,1,2.08-2.08h0a2.08,2.08,0,0,1,2.08,2.08V232A2.08,2.08,0,0,1,557.43,234.07Z" style="fill:#008080"></path><path d="M556.89,238.17c0,.58-.42,1-1.26,1a1.78,1.78,0,0,1-1.25-.45l.17-.28a1.56,1.56,0,0,0,1.08.4c.58,0,.89-.27.89-.7s-.29-.69-.93-.69h-.25v-.26l1-1.2h-1.78v-.32h2.24V236l-1,1.24C556.52,237.23,556.89,237.62,556.89,238.17Z" style="fill:#263238"></path><path d="M557.39,237.43c0-1.1.58-1.76,1.38-1.76s1.39.66,1.39,1.76-.58,1.77-1.39,1.77S557.39,238.54,557.39,237.43Zm2.4,0c0-.92-.41-1.43-1-1.43s-1,.51-1,1.43.42,1.44,1,1.44S559.79,238.36,559.79,237.43Z" style="fill:#263238"></path><path d="M565.75,233.88h0a2.08,2.08,0,0,1-2.08-2.08V192.74a2.08,2.08,0,0,1,2.08-2.08h0a2.08,2.08,0,0,1,2.08,2.08V231.8A2.08,2.08,0,0,1,565.75,233.88Z" style="fill:#e0e0e0"></path><path d="M565.75,234.07h0a2.08,2.08,0,0,1-2.08-2.08V198.88a2.09,2.09,0,0,1,2.08-2.09h0a2.09,2.09,0,0,1,2.08,2.09V232A2.08,2.08,0,0,1,565.75,234.07Z" style="fill:#008080"></path><path d="M565.77,238.26h-.69v.91h-.36v-.91h-2V238l1.84-2.3h.4l-1.78,2.24h1.51v-.8h.35v.8h.69Z" style="fill:#263238"></path><path d="M566.1,237.43c0-1.1.58-1.76,1.38-1.76s1.39.66,1.39,1.76-.59,1.77-1.39,1.77S566.1,238.54,566.1,237.43Zm2.4,0c0-.92-.42-1.43-1-1.43s-1,.51-1,1.43.41,1.44,1,1.44S568.5,238.36,568.5,237.43Z" style="fill:#263238"></path><path d="M574.08,233.88h0A2.09,2.09,0,0,1,572,231.8V192.74a2.09,2.09,0,0,1,2.09-2.08h0a2.08,2.08,0,0,1,2.08,2.08V231.8A2.08,2.08,0,0,1,574.08,233.88Z" style="fill:#e0e0e0"></path><path d="M574.08,234.07h0A2.09,2.09,0,0,1,572,232V205.22a2.09,2.09,0,0,1,2.09-2.08h0a2.08,2.08,0,0,1,2.08,2.08V232A2.08,2.08,0,0,1,574.08,234.07Z" style="fill:#008080"></path><path d="M573.89,238.15c0,.59-.41,1-1.26,1a1.74,1.74,0,0,1-1.24-.45l.17-.28a1.51,1.51,0,0,0,1.07.4c.59,0,.9-.29.9-.71s-.28-.72-1.16-.72h-.74l.18-1.74h1.9V236h-1.59l-.12,1.1h.45C573.49,237.12,573.89,237.53,573.89,238.15Z" style="fill:#263238"></path><path d="M574.34,237.43c0-1.1.58-1.76,1.38-1.76s1.39.66,1.39,1.76-.58,1.77-1.39,1.77S574.34,238.54,574.34,237.43Zm2.41,0c0-.92-.42-1.43-1-1.43s-1,.51-1,1.43.42,1.44,1,1.44S576.75,238.36,576.75,237.43Z" style="fill:#263238"></path><path d="M582.4,233.88h0a2.08,2.08,0,0,1-2.08-2.08V192.74a2.08,2.08,0,0,1,2.08-2.08h0a2.08,2.08,0,0,1,2.08,2.08V231.8A2.08,2.08,0,0,1,582.4,233.88Z" style="fill:#e0e0e0"></path><path d="M582.4,233.88h0a2,2,0,0,1-2.08-1.89V212.75a2.12,2.12,0,0,1,2.08-2.26h0a2.08,2.08,0,0,1,2.08,2.08V231.8A2.08,2.08,0,0,1,582.4,233.88Z" style="fill:#008080"></path><path d="M582.12,238.13a1.08,1.08,0,0,1-1.18,1.07c-.92,0-1.42-.64-1.42-1.74s.64-1.79,1.58-1.79a1.55,1.55,0,0,1,.83.19l-.15.28a1.28,1.28,0,0,0-.67-.16c-.75,0-1.23.48-1.23,1.42,0,.08,0,.18,0,.29a1.1,1.1,0,0,1,1.06-.6A1.05,1.05,0,0,1,582.12,238.13Zm-.35,0c0-.45-.33-.75-.87-.75a.77.77,0,1,0,0,1.51A.76.76,0,0,0,581.77,238.14Z" style="fill:#263238"></path><path d="M582.53,237.43c0-1.1.58-1.76,1.39-1.76s1.39.66,1.39,1.76-.59,1.77-1.39,1.77S582.53,238.54,582.53,237.43Zm2.41,0c0-.92-.42-1.43-1-1.43s-1,.51-1,1.43.41,1.44,1,1.44S584.94,238.36,584.94,237.43Z" style="fill:#263238"></path><path d="M590.72,233.88h0a2.08,2.08,0,0,1-2.08-2.08V192.74a2.08,2.08,0,0,1,2.08-2.08h0a2.08,2.08,0,0,1,2.08,2.08V231.8A2.08,2.08,0,0,1,590.72,233.88Z" style="fill:#e0e0e0"></path><path d="M590.72,234.07h0a2.08,2.08,0,0,1-2.08-2.08v-35.1a2.08,2.08,0,0,1,2.08-2.08h0a2.08,2.08,0,0,1,2.08,2.08V232A2.08,2.08,0,0,1,590.72,234.07Z" style="fill:#008080"></path><path d="M590.28,235.7V236l-1.46,3.22h-.38l1.42-3.15h-1.78v.64h-.35v-1Z" style="fill:#263238"></path><path d="M590.65,237.43c0-1.1.58-1.76,1.38-1.76s1.39.66,1.39,1.76-.59,1.77-1.39,1.77S590.65,238.54,590.65,237.43Zm2.4,0c0-.92-.41-1.43-1-1.43s-1,.51-1,1.43.42,1.44,1,1.44S593.05,238.36,593.05,237.43Z" style="fill:#263238"></path><path d="M599,233.88h0A2.08,2.08,0,0,1,597,231.8V192.74a2.08,2.08,0,0,1,2.08-2.08h0a2.08,2.08,0,0,1,2.08,2.08V231.8A2.08,2.08,0,0,1,599,233.88Z" style="fill:#e0e0e0"></path><path d="M599,234.07h0A2.08,2.08,0,0,1,597,232V216.72a2.08,2.08,0,0,1,2.08-2.08h0a2.08,2.08,0,0,1,2.08,2.08V232A2.08,2.08,0,0,1,599,234.07Z" style="fill:#008080"></path><path d="M598.63,238.2c0,.62-.52,1-1.35,1s-1.34-.38-1.34-1a.87.87,0,0,1,.67-.85.79.79,0,0,1-.55-.76c0-.57.49-.92,1.22-.92s1.22.35,1.22.92a.78.78,0,0,1-.55.76A.87.87,0,0,1,598.63,238.2Zm-.37,0c0-.43-.37-.7-1-.7s-1,.27-1,.7.36.7,1,.7S598.26,238.63,598.26,238.2Zm-1-1c.54,0,.86-.24.86-.62s-.34-.63-.86-.63-.86.24-.86.63S596.74,237.22,597.28,237.22Z" style="fill:#263238"></path><path d="M599.12,237.43c0-1.1.58-1.76,1.39-1.76s1.38.66,1.38,1.76-.58,1.77-1.38,1.77S599.12,238.54,599.12,237.43Zm2.41,0c0-.92-.42-1.43-1-1.43s-1,.51-1,1.43.42,1.44,1,1.44S601.53,238.36,601.53,237.43Z" style="fill:#263238"></path><path d="M607.36,233.88h0a2.08,2.08,0,0,1-2.08-2.08V192.74a2.08,2.08,0,0,1,2.08-2.08h0a2.09,2.09,0,0,1,2.09,2.08V231.8A2.09,2.09,0,0,1,607.36,233.88Z" style="fill:#e0e0e0"></path><path d="M607.36,233.88h0a2,2,0,0,1-2.08-1.89v-5.36a2.12,2.12,0,0,1,2.08-2.26h0a2.09,2.09,0,0,1,2.09,2.08v5.35A2.09,2.09,0,0,1,607.36,233.88Z" style="fill:#008080"></path><path d="M606.74,237.4c0,1.18-.65,1.8-1.59,1.8a1.53,1.53,0,0,1-.82-.19l.14-.29a1.23,1.23,0,0,0,.68.17c.74,0,1.23-.48,1.23-1.43,0-.08,0-.18,0-.28a1.11,1.11,0,0,1-1.06.6,1.05,1.05,0,0,1-1.17-1.05,1.07,1.07,0,0,1,1.18-1.06C606.24,235.67,606.74,236.31,606.74,237.4Zm-.49-.69c0-.38-.32-.74-.92-.74a.76.76,0,0,0-.85.75c0,.46.34.75.87.75A.8.8,0,0,0,606.25,236.71Z" style="fill:#263238"></path><path d="M607.25,237.43c0-1.1.58-1.76,1.39-1.76s1.38.66,1.38,1.76-.58,1.77-1.38,1.77S607.25,238.54,607.25,237.43Zm2.41,0c0-.92-.42-1.43-1-1.43s-1,.51-1,1.43.42,1.44,1,1.44S609.66,238.36,609.66,237.43Z" style="fill:#263238"></path><path d="M615.69,233.88h0a2.08,2.08,0,0,1-2.08-2.08V192.74a2.08,2.08,0,0,1,2.08-2.08h0a2.08,2.08,0,0,1,2.08,2.08V231.8A2.08,2.08,0,0,1,615.69,233.88Z" style="fill:#e0e0e0"></path><path d="M615.69,233.88h0a2,2,0,0,1-2.08-1.89V212.75a2.12,2.12,0,0,1,2.08-2.26h0a2.08,2.08,0,0,1,2.08,2.08V231.8A2.08,2.08,0,0,1,615.69,233.88Z" style="fill:#008080"></path><path d="M612.7,235.7v3.47h-.35V236h-.82v-.32Z" style="fill:#263238"></path><path d="M613.53,237.43c0-1.1.58-1.76,1.39-1.76s1.38.66,1.38,1.76-.58,1.77-1.38,1.77S613.53,238.54,613.53,237.43Zm2.41,0c0-.92-.42-1.43-1-1.43s-1,.51-1,1.43.42,1.44,1,1.44S615.94,238.36,615.94,237.43Z" style="fill:#263238"></path><path d="M616.81,237.43c0-1.1.58-1.76,1.39-1.76s1.38.66,1.38,1.76-.58,1.77-1.38,1.77S616.81,238.54,616.81,237.43Zm2.41,0c0-.92-.42-1.43-1-1.43s-1,.51-1,1.43.42,1.44,1,1.44S619.22,238.36,619.22,237.43Z" style="fill:#263238"></path><path d="M599,171.14c0,.14-13.55.26-30.26.26s-30.26-.12-30.26-.26,13.55-.26,30.26-.26S599,171,599,171.14Z" style="fill:#e0e0e0"></path><path d="M617.77,262.52c0,.14-17.76.26-39.67.26s-39.67-.12-39.67-.26,17.76-.26,39.67-.26S617.77,262.37,617.77,262.52Z" style="fill:#e0e0e0"></path><path d="M617.77,276.15c0,.14-17.76.26-39.67.26s-39.67-.12-39.67-.26,17.76-.26,39.67-.26S617.77,276,617.77,276.15Z" style="fill:#e0e0e0"></path><path d="M617.77,289.78c0,.14-17.76.26-39.67.26s-39.67-.12-39.67-.26,17.76-.26,39.67-.26S617.77,289.63,617.77,289.78Z" style="fill:#e0e0e0"></path><path d="M617.77,303.41c0,.14-17.76.26-39.67.26s-39.67-.12-39.67-.26,17.76-.26,39.67-.26S617.77,303.26,617.77,303.41Z" style="fill:#e0e0e0"></path><path d="M617.77,317c0,.14-17.76.26-39.67.26s-39.67-.12-39.67-.26,17.76-.26,39.67-.26S617.77,316.9,617.77,317Z" style="fill:#e0e0e0"></path><path d="M614.62,363.43A13.38,13.38,0,0,1,628,376.79v11.12a13.38,13.38,0,0,1-13.37,13.36H540a13.37,13.37,0,0,1-13.36-13.36V376.79A13.37,13.37,0,0,1,540,363.43h74.66m0-1H540a14.36,14.36,0,0,0-14.36,14.36v11.12A14.36,14.36,0,0,0,540,402.27h74.66A14.36,14.36,0,0,0,629,387.91V376.79a14.36,14.36,0,0,0-14.37-14.36Z" style="fill:#008080"></path><path d="M608.36,383.47c0,.14-13.91.26-31.07.26s-31.07-.12-31.07-.26,13.91-.26,31.07-.26S608.36,383.33,608.36,383.47Z" style="fill:#008080"></path><path d="M316.41,111.27c7.7-6,14.5-13.46,23.34-17.66,15.19-7.22,33.12-3.56,49.34.91s33.35,9.65,49.53,5c15-4.25,26.93-17.44,30.26-32.59H190.52c3.71,30.78,26.91,56.15,57.75,61.49l1.93.31A87.82,87.82,0,0,0,316.41,111.27Z" style="fill:#008080"></path><path d="M505.31,95.53c7.84,7.11,19.27,9,29.78,7.83,7.08-.82,14.27-3.07,19.38-8,5.8-5.62,8.18-14.35,6.62-22.27a26.4,26.4,0,0,0-2-6.08h-58C494.72,75.37,497.49,88.43,505.31,95.53Z" style="fill:#008080"></path><g style="opacity:0.8"><path d="M316.41,111.27c7.7-6,14.5-13.46,23.34-17.66,15.19-7.22,33.12-3.56,49.34.91s33.35,9.65,49.53,5c15-4.25,26.93-17.44,30.26-32.59H190.52c3.71,30.78,26.91,56.15,57.75,61.49l1.93.31A87.82,87.82,0,0,0,316.41,111.27Z" style="fill:#fff"></path><path d="M505.31,95.53c7.84,7.11,19.27,9,29.78,7.83,7.08-.82,14.27-3.07,19.38-8,5.8-5.62,8.18-14.35,6.62-22.27a26.4,26.4,0,0,0-2-6.08h-58C494.72,75.37,497.49,88.43,505.31,95.53Z" style="fill:#fff"></path></g><path d="M563.15,94.26a4.08,4.08,0,0,1,1,.27l.76-.64,1.3,1-.41.9a4,4,0,0,1,.54.92l1,.09.22,1.63-.93.35a4,4,0,0,1-.27,1l.63.76-1,1.31-.9-.41a3.87,3.87,0,0,1-.93.53l-.08,1-1.63.22-.35-.93a3.56,3.56,0,0,1-1-.27l-.76.64-1.31-1,.41-.9a4,4,0,0,1-.54-.92l-1-.09-.22-1.63.93-.34a4.1,4.1,0,0,1,.28-1l-.64-.76,1-1.31.91.42a4,4,0,0,1,.92-.54l.09-1,1.62-.22.35.93Zm-.49,2.24a1.76,1.76,0,1,0,1.77,1.35A1.76,1.76,0,0,0,562.66,96.5Z" style="fill:none"></path><path d="M562.66,96.5s.16-.09.46-.06a1.81,1.81,0,0,1,1.11.59,1.94,1.94,0,0,1,.39,1.85,2,2,0,0,1-3.76.12,1.93,1.93,0,0,1,.28-1.87,1.75,1.75,0,0,1,1.07-.66c.29,0,.45,0,.45,0s-.7.07-1.22.85a1.56,1.56,0,0,0-.13,1.47,1.54,1.54,0,0,0,1.46.94,1.57,1.57,0,0,0,1.4-1,1.59,1.59,0,0,0-.23-1.46A2.48,2.48,0,0,0,562.66,96.5Z" style="fill:#263238"></path><path d="M563.15,94.26a5.47,5.47,0,0,1-.42-.9l.09,0-1.62.27.11-.12c0,.31,0,.64-.07,1v.09l-.09,0a3.68,3.68,0,0,0-.88.53l-.08.06-.1,0-.9-.4.22,0-1,1.31v-.25l.64.75.08.1,0,.12a3.81,3.81,0,0,0-.25,1l0,.14-.13,0-.93.35.15-.25c.08.51.15,1.06.23,1.63L558,99.5l1,.08h.15l.06.14a4.11,4.11,0,0,0,.51.87l.09.12-.06.14-.41.9-.08-.31,1.31,1h-.32l.76-.64.12-.1.15.06a4.1,4.1,0,0,0,1,.26h0l.22.16h0v0l0,.06,0,.12.09.23.17.46-.28-.16,1.63-.22-.22.23.09-1v-.15l.14-.06a3.72,3.72,0,0,0,.87-.5l.12-.1.14.07.9.41-.3.08,1-1.3v.3l-.63-.77-.09-.11,0-.13a3.8,3.8,0,0,0,.27-1l0-.14.12,0,.93-.33-.14.23c-.07-.57-.13-1.11-.2-1.63l.18.17-1-.1h-.11l0-.1a4,4,0,0,0-.5-.89l-.07-.09.05-.09.42-.9,0,.19-1.28-1H565l-.78.61,0,0-.05,0c-.65-.29-1-.31-1-.35a.48.48,0,0,1,.27,0,3.24,3.24,0,0,1,.8.19l-.09,0,.74-.67.07-.06.08.06,1.33,1,.09.08-.05.11-.39.91,0-.17a4.2,4.2,0,0,1,.57,1l-.15-.11,1,.07h.15l0,.16c.07.52.15,1.06.23,1.63l0,.17-.16.06-.93.36.14-.19a4,4,0,0,1-.28,1.1l0-.24.64.76.12.14-.11.16c-.33.42-.66.86-1,1.31l-.12.16-.18-.09-.91-.4.26,0a3.84,3.84,0,0,1-1,.58l.16-.21q0,.48-.09,1v.2l-.21,0-1.63.22-.2,0-.07-.2-.18-.46-.09-.23,0-.12,0-.06v0h0l.21.16h0a4.23,4.23,0,0,1-1.1-.29l.26,0-.76.64-.16.13-.16-.13-1.3-1-.17-.13.09-.18.41-.9,0,.26a4.76,4.76,0,0,1-.57-1l.21.15-1-.09-.19,0,0-.19c-.07-.56-.14-1.11-.21-1.63l0-.18.17-.06.93-.34-.14.18a4.06,4.06,0,0,1,.3-1.09l0,.22-.63-.77L558,96l.1-.12,1-1.3.09-.12.13.07.9.42-.18,0a3.93,3.93,0,0,1,1-.54l-.09.12c0-.35.07-.68.11-1v-.11h.1l1.63-.17h.07l0,.06A5.26,5.26,0,0,1,563.15,94.26Z" style="fill:#263238"></path><path d="M630.19,423.22l.28,0c.18,0,.46,0,.83-.07a8.64,8.64,0,0,0,7.52-8.29c0-1.25,0-2.59,0-4,0-11.38,0-28.15-.05-49.75,0-43.21,0-105.72-.09-183q0-29,0-60.63,0-15.81,0-32.25V77a11.08,11.08,0,0,0-.46-4,8.34,8.34,0,0,0-2.17-3.4,8.42,8.42,0,0,0-3.51-2,14.39,14.39,0,0,0-4.12-.34h-8.48l-145,0-332.27,0a8.48,8.48,0,0,0-8.09,5.9c-.55,1.7-.34,3.55-.38,5.39v70.76q0,43.05,0,84.78c0,55.58,0,109.2,0,160.27q0,9.59,0,19a17.81,17.81,0,0,0,.09,2.33,8.43,8.43,0,0,0,3.47,5.71,8.31,8.31,0,0,0,4.23,1.54c1.52.07,3.11,0,4.65,0H253.8l126.35,0,250,.18-250,.18-126.35,0H146.59c-1.56,0-3.09,0-4.69,0a8.92,8.92,0,0,1-4.47-1.62,8.87,8.87,0,0,1-3.66-6,17.49,17.49,0,0,1-.09-2.39v-19c0-51.07,0-104.69,0-160.27V75.77a9.87,9.87,0,0,1,.41-2.79,9,9,0,0,1,8.58-6.26l332.27,0,145,0h8.48a14.49,14.49,0,0,1,4.24.35,8.87,8.87,0,0,1,6,5.69,11.42,11.42,0,0,1,.48,4.17v8.26q0,16.42,0,32.25,0,31.62,0,60.63c0,77.24-.06,139.75-.08,183,0,21.6,0,38.37-.05,49.75,0,1.42,0,2.76,0,4a8.72,8.72,0,0,1-4.48,7.31,8.47,8.47,0,0,1-3.13,1A10.22,10.22,0,0,1,630.19,423.22Z" style="fill:#263238"></path><rect x="416.67" y="144.64" width="98.28" height="46.41" rx="9.57" style="fill:#e0e0e0"></rect><path d="M443.57,166.9v8.54h-.88v-7.76h-2v-.78Z" style="fill:#263238"></path><path d="M451.41,172.93c0,1.45-1,2.59-3.1,2.59a4.42,4.42,0,0,1-3.07-1.1l.43-.7a3.69,3.69,0,0,0,2.63,1c1.45,0,2.22-.71,2.22-1.74s-.69-1.79-2.86-1.79h-1.82l.44-4.28H451v.78h-3.91l-.29,2.72h1.1C450.43,170.4,451.41,171.42,451.41,172.93Z" style="fill:#263238"></path><path d="M452.52,171.17c0-2.72,1.43-4.34,3.41-4.34s3.42,1.62,3.42,4.34-1.45,4.35-3.42,4.35S452.52,173.89,452.52,171.17Zm5.92,0c0-2.28-1-3.54-2.51-3.54s-2.52,1.26-2.52,3.54,1,3.54,2.52,3.54S458.44,173.45,458.44,171.17Z" style="fill:#263238"></path><path d="M460.6,171.17c0-2.72,1.43-4.34,3.41-4.34s3.42,1.62,3.42,4.34-1.44,4.35-3.42,4.35S460.6,173.89,460.6,171.17Zm5.92,0c0-2.28-1-3.54-2.51-3.54s-2.52,1.26-2.52,3.54,1,3.54,2.52,3.54S466.52,173.45,466.52,171.17Z" style="fill:#263238"></path><path d="M476,173.2h-1.71v2.24h-.88V173.2h-4.82v-.64l4.53-5.66h1l-4.36,5.52h3.71v-2h.85v2H476Z" style="fill:#263238"></path><path d="M482.54,174.66v.78h-6v-.62l3.55-3.48c1-1,1.15-1.52,1.15-2.11,0-1-.7-1.6-2-1.6a2.92,2.92,0,0,0-2.33,1l-.63-.53a3.84,3.84,0,0,1,3-1.22c1.73,0,2.83.87,2.83,2.3a3.52,3.52,0,0,1-1.4,2.68l-2.91,2.85Z" style="fill:#263238"></path><path d="M483.59,171.17c0-2.72,1.43-4.34,3.41-4.34s3.42,1.62,3.42,4.34-1.44,4.35-3.42,4.35S483.59,173.89,483.59,171.17Zm5.93,0c0-2.28-1-3.54-2.52-3.54s-2.51,1.26-2.51,3.54,1,3.54,2.51,3.54S489.52,173.45,489.52,171.17Z" style="fill:#263238"></path><path d="M474.35,158.11c0,.14-9.5.26-21.22.26s-21.23-.12-21.23-.26,9.5-.26,21.23-.26S474.35,158,474.35,158.11Z" style="fill:#263238"></path><rect x="309.5" y="144.89" width="98.28" height="46.41" rx="9.57" style="fill:#e0e0e0"></rect><path d="M332.54,177.92v1.4h-.61v-1.39a4.58,4.58,0,0,1-2.92-1.11l.35-.69a4.18,4.18,0,0,0,2.57,1v-3.21c-1.34-.33-2.71-.74-2.71-2.35,0-1.18.84-2.19,2.71-2.34v-1.4h.61v1.39A4.87,4.87,0,0,1,335,170l-.31.72a4.53,4.53,0,0,0-2.17-.71v3.24c1.38.32,2.83.72,2.83,2.35C335.37,176.79,334.48,177.81,332.54,177.92Zm-.61-4.83V170c-1.26.1-1.82.75-1.82,1.52C330.11,172.49,330.93,172.83,331.93,173.09Zm2.55,2.56c0-1-.89-1.29-1.94-1.55v3.05C333.88,177.05,334.48,176.43,334.48,175.65Z" style="fill:#263238"></path><path d="M345.61,177.08v.78h-6v-.62l3.55-3.48c1-.95,1.15-1.53,1.15-2.11,0-1-.7-1.6-2-1.6A2.89,2.89,0,0,0,340,171l-.63-.54a3.86,3.86,0,0,1,3-1.22c1.74,0,2.83.88,2.83,2.31a3.49,3.49,0,0,1-1.4,2.67l-2.9,2.86Z" style="fill:#263238"></path><path d="M352.37,175.41c0,1.42-1,2.52-3.1,2.52a4.4,4.4,0,0,1-3.08-1.1l.43-.69a3.75,3.75,0,0,0,2.65,1c1.41,0,2.19-.66,2.19-1.72s-.72-1.7-2.3-1.7h-.61v-.65l2.36-3h-4.37v-.79H352v.63l-2.42,3C351.45,173.07,352.37,174,352.37,175.41Z" style="fill:#263238"></path><path d="M359.28,175.35c0,1.45-1,2.58-3.1,2.58a4.38,4.38,0,0,1-3.07-1.1l.43-.69a3.72,3.72,0,0,0,2.62,1c1.46,0,2.23-.71,2.23-1.75s-.69-1.78-2.86-1.78h-1.82l.44-4.29h4.68v.79h-3.91l-.29,2.72h1.1C358.3,172.82,359.28,173.83,359.28,175.35Z" style="fill:#263238"></path><path d="M360.39,173.59c0-2.72,1.43-4.35,3.4-4.35s3.42,1.63,3.42,4.35-1.44,4.34-3.42,4.34S360.39,176.31,360.39,173.59Zm5.92,0c0-2.28-1-3.54-2.52-3.54s-2.51,1.26-2.51,3.54,1,3.54,2.51,3.54S366.31,175.87,366.31,173.59Z" style="fill:#263238"></path><path d="M369.66,177.25a1.87,1.87,0,0,1-.18.71l-.51,1.68h-.58l.41-1.77a.61.61,0,0,1-.44-.62.65.65,0,1,1,1.3,0Z" style="fill:#263238"></path><path d="M370.79,173.59c0-2.72,1.43-4.35,3.41-4.35s3.42,1.63,3.42,4.35-1.44,4.34-3.42,4.34S370.79,176.31,370.79,173.59Zm5.92,0c0-2.28-1-3.54-2.51-3.54s-2.52,1.26-2.52,3.54,1,3.54,2.52,3.54S376.71,175.87,376.71,173.59Z" style="fill:#263238"></path><path d="M378.87,173.59c0-2.72,1.43-4.35,3.41-4.35s3.42,1.63,3.42,4.35-1.44,4.34-3.42,4.34S378.87,176.31,378.87,173.59Zm5.92,0c0-2.28-1-3.54-2.51-3.54s-2.51,1.26-2.51,3.54,1,3.54,2.51,3.54S384.79,175.87,384.79,173.59Z" style="fill:#263238"></path><path d="M366.06,159.34c0,.14-8.61.26-19.23.26s-19.24-.12-19.24-.26,8.61-.26,19.24-.26S366.06,159.19,366.06,159.34Z" style="fill:#263238"></path><rect x="201.95" y="144.89" width="98.28" height="46.41" rx="9.57" style="fill:#008080"></rect><path d="M224.18,177.92v1.41h-.61v-1.4a4.55,4.55,0,0,1-2.91-1.11l.35-.69a4.15,4.15,0,0,0,2.56,1v-3.21c-1.34-.33-2.71-.74-2.71-2.35,0-1.18.85-2.19,2.71-2.34v-1.4h.61v1.39a4.81,4.81,0,0,1,2.48.76l-.3.72a4.6,4.6,0,0,0-2.18-.71v3.24c1.38.33,2.84.72,2.84,2.35C227,176.79,226.12,177.81,224.18,177.92Zm-.61-4.83V170c-1.25.11-1.81.75-1.81,1.52C221.76,172.49,222.57,172.83,223.57,173.09Zm2.55,2.56c0-1-.89-1.29-1.94-1.55v3.05C225.53,177.05,226.12,176.43,226.12,175.65Z" style="fill:#fff"></path><path d="M237.26,177.08v.78h-6v-.62l3.55-3.48c1-.95,1.15-1.53,1.15-2.11,0-1-.7-1.6-2-1.6a2.89,2.89,0,0,0-2.33.95l-.62-.54a3.84,3.84,0,0,1,3-1.22c1.73,0,2.83.88,2.83,2.31a3.52,3.52,0,0,1-1.4,2.67l-2.91,2.86Z" style="fill:#fff"></path><path d="M240.73,169.32v8.54h-.88V170.1h-2v-.78Z" style="fill:#fff"></path><path d="M242.77,173.59c0-2.72,1.43-4.35,3.4-4.35s3.42,1.63,3.42,4.35-1.44,4.34-3.42,4.34S242.77,176.31,242.77,173.59Zm5.92,0c0-2.28-1-3.54-2.52-3.54s-2.51,1.26-2.51,3.54,1,3.54,2.51,3.54S248.69,175.87,248.69,173.59Z" style="fill:#fff"></path><path d="M250.85,173.59c0-2.72,1.43-4.35,3.41-4.35s3.41,1.63,3.41,4.35-1.44,4.34-3.41,4.34S250.85,176.31,250.85,173.59Zm5.92,0c0-2.28-1-3.54-2.51-3.54s-2.52,1.26-2.52,3.54,1,3.54,2.52,3.54S256.77,175.87,256.77,173.59Z" style="fill:#fff"></path><path d="M260.12,177.25a2,2,0,0,1-.17.71l-.52,1.68h-.58l.41-1.77a.62.62,0,0,1-.44-.62.65.65,0,1,1,1.3,0Z" style="fill:#fff"></path><path d="M267.55,173.51c0,2.91-1.59,4.42-3.9,4.42a3.93,3.93,0,0,1-2-.46l.35-.71a3,3,0,0,0,1.66.4c1.85,0,3-1.18,3-3.5a6,6,0,0,0,0-.69,2.71,2.71,0,0,1-2.61,1.46,2.59,2.59,0,0,1-2.88-2.56,2.67,2.67,0,0,1,2.92-2.63C266.32,169.24,267.55,170.82,267.55,173.51Zm-1.21-1.69c0-.94-.78-1.83-2.25-1.83a1.87,1.87,0,0,0-2.09,1.85c0,1.13.83,1.85,2.15,1.85A2,2,0,0,0,266.34,171.82Z" style="fill:#fff"></path><path d="M268.82,173.59c0-2.72,1.43-4.35,3.41-4.35s3.42,1.63,3.42,4.35-1.44,4.34-3.42,4.34S268.82,176.31,268.82,173.59Zm5.92,0c0-2.28-1-3.54-2.51-3.54s-2.52,1.26-2.52,3.54,1,3.54,2.52,3.54S274.74,175.87,274.74,173.59Z" style="fill:#fff"></path><path d="M254.6,159.34c0,.14-7.91.26-17.67.26s-17.66-.12-17.66-.26,7.9-.26,17.66-.26S254.6,159.19,254.6,159.34Z" style="fill:#fff"></path><path d="M157.17,106.89h0a8.56,8.56,0,0,1-8.56-8.56h0a8.55,8.55,0,0,1,8.56-8.55h0a8.55,8.55,0,0,1,8.55,8.55h0A8.55,8.55,0,0,1,157.17,106.89Z" style="fill:#fff"></path></g></svg>